<?xml version="1.0" encoding="UTF-8" standalone="no"?>
<!-- Created with Inkscape (http://www.inkscape.org/) -->

<svg
   width="300"
   height="40"
   id="svg4186"
   version="1.1"
   inkscape:version="1.1.1 (c3084ef, 2021-09-22)"
   sodipodi:docname="tro.black.svg"
   inkscape:export-filename="/Users/jorge/code/serchilo/design/logo/white.png"
   inkscape:export-xdpi="342.09"
   inkscape:export-ydpi="342.09"
   xmlns:inkscape="http://www.inkscape.org/namespaces/inkscape"
   xmlns:sodipodi="http://sodipodi.sourceforge.net/DTD/sodipodi-0.dtd"
   xmlns="http://www.w3.org/2000/svg"
   xmlns:svg="http://www.w3.org/2000/svg"
   xmlns:rdf="http://www.w3.org/1999/02/22-rdf-syntax-ns#"
   xmlns:cc="http://creativecommons.org/ns#"
   xmlns:dc="http://purl.org/dc/elements/1.1/">
  <defs
     id="defs4188" />
  <sodipodi:namedview
     inkscape:document-units="mm"
     pagecolor="#343a40"
     bordercolor="#666666"
     borderopacity="1.0"
     inkscape:pageopacity="1"
     inkscape:pageshadow="2"
     inkscape:zoom="2.2415175"
     inkscape:cx="147.66782"
     inkscape:cy="14.499106"
     inkscape:current-layer="layer1"
     id="namedview4190"
     showgrid="false"
     units="px"
     showborder="true"
     inkscape:showpageshadow="false"
     inkscape:window-width="1440"
     inkscape:window-height="791"
     inkscape:window-x="0"
     inkscape:window-y="25"
     inkscape:window-maximized="1"
     showguides="true"
     inkscape:guide-bbox="true"
     inkscape:pagecheckerboard="0" />
  <metadata
     id="metadata4192">
    <rdf:RDF>
      <cc:Work
         rdf:about="">
        <dc:format>image/svg+xml</dc:format>
        <dc:type
           rdf:resource="http://purl.org/dc/dcmitype/StillImage" />
      </cc:Work>
    </rdf:RDF>
  </metadata>
  <g
     inkscape:label="Layer 1"
     inkscape:groupmode="layer"
     id="layer1">
    <path
       style="fill:#487b7f;fill-opacity:1;stroke:none;stroke-width:0.176389"
       d="M 3.501167,7.5106132 C 2.3823187,7.5106015 1.4226017,8.0596535 0.7813403,8.870691 l 14.7567587,8.477705 -3e-5,5.468913 -14.6988881,8.420127 c 0.6423223,0.774831 1.5723186,1.273177 2.6619991,1.273159 l 17.99743,1.8e-5 c 1.943016,5e-6 3.50112,-1.558023 3.501195,-3.501156 l 1.3e-5,-17.968266 C 24.999875,9.0977359 23.441755,7.5106776 21.498844,7.5106776 L 3.501321,7.510666 Z M 0,15.062675 6e-6,25.103435 9.143578,20.126253 Z"
       id="rect5356-0-2-07-4-3-2-1-6-8-4-5-5-3-7-8-0"
       inkscape:connector-curvature="0"
       inkscape:export-filename="/Users/jrg/cde/web/tro/design/logo/logo.png"
       inkscape:export-xdpi="95.999298"
       inkscape:export-ydpi="95.999298" />
    <g
       aria-label="trovu"
       id="text5975"
       style="font-size:30.991px;line-height:1.25;fill:#ffffff;stroke-width:0.774775"
       transform="matrix(0.99999273,0,0,0.99999273,-7.4999455,5.4616842e-5)">
      <path
         d="m 45.131663,30.153919 q -2.293334,0 -3.563965,-1.456577 -1.115676,-1.270631 -1.115676,-3.161082 v -7.995677 h -1.704505 v -3.068109 h 1.704505 V 9.6998597 h 4.02883 v 4.7726143 h 2.851172 v 3.068109 h -2.851172 v 7.747749 q 0,1.456577 1.394595,1.456577 h 1.456577 v 3.40901 z"
         style="font-weight:bold;font-family:Streetvertising;-inkscape-font-specification:'Streetvertising Bold'"
         id="path36274" />
      <path
         d="m 59.745856,18.408331 q -0.960721,-0.960721 -2.138379,-0.960721 -1.022703,0 -1.766487,0.712793 -0.836757,0.836757 -0.836757,2.262342 v 9.731174 h -4.02883 v -16.14631 h 3.935857 v 1.54955 q 1.456577,-1.735496 4.059821,-1.735496 2.293334,0 3.811893,1.518559 z"
         style="font-weight:bold;font-family:Streetvertising;-inkscape-font-specification:'Streetvertising Bold'"
         id="path36276" />
      <path
         d="m 69.06882,26.373017 q -0.371892,-0.185946 -0.650811,-0.433874 -0.898739,-0.92973 -0.898739,-3.935857 0,-2.975136 0.898739,-3.873874 0.712793,-0.712793 1.85946,-0.712793 1.177658,0 1.890451,0.712793 0.92973,0.898738 0.92973,3.873874 0,3.006127 -0.92973,3.935857 -0.216937,0.185946 -0.526847,0.371892 v 3.811893 q 2.231352,-0.371892 3.656938,-1.85946 1.797478,-1.890451 1.797478,-6.260182 0,-4.338739 -1.797478,-6.22919 -1.85946,-1.983424 -5.020542,-1.983424 -3.0991,0 -4.95856,1.983424 -1.828468,1.890451 -1.828468,6.22919 0,4.369731 1.828468,6.260182 1.425586,1.54955 3.749911,1.890451 z"
         style="font-weight:bold;font-family:Streetvertising;-inkscape-font-specification:'Streetvertising Bold'"
         id="path36278" />
      <path
         d="m 87.607731,30.153919 h -3.161082 l -5.950271,-16.14631 h 4.245767 l 3.285045,9.979101 3.254055,-9.979101 h 4.245767 z"
         style="font-weight:bold;font-family:Streetvertising;-inkscape-font-specification:'Streetvertising Bold'"
         id="path36280" />
      <path
         d="m 105.18544,30.153919 v -1.487568 q -1.58054,1.673514 -4.02883,1.673514 -2.386307,0 -3.811893,-1.425586 -1.642523,-1.642523 -1.642523,-4.586668 V 14.007609 h 4.02883 v 9.762164 q 0,1.518559 0.867746,2.293334 0.7128,0.650811 1.79748,0.650811 1.11568,0 1.82847,-0.650811 0.86775,-0.774775 0.86775,-2.293334 v -9.762164 h 4.02883 v 16.14631 z"
         style="font-weight:bold;font-family:Streetvertising;-inkscape-font-specification:'Streetvertising Bold'"
         id="path36282" />
    </g>
    <text
       xml:space="preserve"
       style="font-style:normal;font-weight:normal;font-size:14.6667px;line-height:1.25;font-family:sans-serif;fill:#487b7f;fill-opacity:1;stroke:none"
       x="109.24529"
       y="30.090822"
       id="text37302"><tspan
         sodipodi:role="line"
         id="tspan37300"
         x="109.24529"
         y="30.090822"
         style="font-style:normal;font-variant:normal;font-weight:bold;font-stretch:normal;font-size:14.6667px;font-family:Streetvertising;-inkscape-font-specification:'Streetvertising Bold';fill:#487b7f;fill-opacity:1">SEARCH WITH SHORTCUTS.</tspan></text>
  </g>
</svg>
