<?xml version="1.0" encoding="UTF-8" standalone="no"?>
<!-- Created with Inkscape (http://www.inkscape.org/) -->

<svg
   width="300"
   height="40"
   id="svg4186"
   version="1.1"
   inkscape:version="1.1.1 (c3084ef, 2021-09-22)"
   sodipodi:docname="tro.black.svg"
   inkscape:export-filename="/Users/jorge/code/serchilo/design/logo/white.png"
   inkscape:export-xdpi="342.09"
   inkscape:export-ydpi="342.09"
   xmlns:inkscape="http://www.inkscape.org/namespaces/inkscape"
   xmlns:sodipodi="http://sodipodi.sourceforge.net/DTD/sodipodi-0.dtd"
   xmlns="http://www.w3.org/2000/svg"
   xmlns:svg="http://www.w3.org/2000/svg"
   xmlns:rdf="http://www.w3.org/1999/02/22-rdf-syntax-ns#"
   xmlns:cc="http://creativecommons.org/ns#"
   xmlns:dc="http://purl.org/dc/elements/1.1/">
  <defs
     id="defs4188" />
  <sodipodi:namedview
     inkscape:document-units="mm"
     pagecolor="#343a40"
     bordercolor="#666666"
     borderopacity="1.0"
     inkscape:pageopacity="1"
     inkscape:pageshadow="2"
     inkscape:zoom="2.2415175"
     inkscape:cx="147.66782"
     inkscape:cy="14.499106"
     inkscape:current-layer="layer1"
     id="namedview4190"
     showgrid="false"
     units="px"
     showborder="true"
     inkscape:showpageshadow="false"
     inkscape:window-width="1440"
     inkscape:window-height="795"
     inkscape:window-x="0"
     inkscape:window-y="25"
     inkscape:window-maximized="1"
     showguides="true"
     inkscape:guide-bbox="true"
     inkscape:pagecheckerboard="0" />
  <metadata
     id="metadata4192">
    <rdf:RDF>
      <cc:Work
         rdf:about="">
        <dc:format>image/svg+xml</dc:format>
        <dc:type
           rdf:resource="http://purl.org/dc/dcmitype/StillImage" />
      </cc:Work>
    </rdf:RDF>
  </metadata>
  <g
     inkscape:label="Layer 1"
     inkscape:groupmode="layer"
     id="layer1">
    <path
       style="fill:#487b7f;fill-opacity:1;stroke:none;stroke-width:0.176389"
       d="M 3.501167,7.5106132 C 2.3823187,7.5106015 1.4226017,8.0596535 0.7813403,8.870691 l 14.7567587,8.477705 -3e-5,5.468913 -14.6988881,8.420127 c 0.6423223,0.774831 1.5723186,1.273177 2.6619991,1.273159 l 17.99743,1.8e-5 c 1.943016,5e-6 3.50112,-1.558023 3.501195,-3.501156 l 1.3e-5,-17.968266 C 24.999875,9.0977359 23.441755,7.5106776 21.498844,7.5106776 L 3.501321,7.510666 Z M 0,15.062675 6e-6,25.103435 9.143578,20.126253 Z"
       id="rect5356-0-2-07-4-3-2-1-6-8-4-5-5-3-7-8-0"
       inkscape:connector-curvature="0"
       inkscape:export-filename="/Users/jrg/cde/web/tro/design/logo/logo.png"
       inkscape:export-xdpi="95.999298"
       inkscape:export-ydpi="95.999298" />
    <g
       aria-label="trovu"
       id="text5975"
       style="font-size:30.991px;line-height:1.25;fill:#ffffff;stroke-width:0.774775"
       transform="matrix(0.99999273,0,0,0.99999273,-7.4999455,5.4616842e-5)">
      <path
         d="m 45.131663,30.153919 q -2.293334,0 -3.563965,-1.456577 -1.115676,-1.270631 -1.115676,-3.161082 v -7.995677 h -1.704505 v -3.068109 h 1.704505 V 9.6998597 h 4.02883 v 4.7726143 h 2.851172 v 3.068109 h -2.851172 v 7.747749 q 0,1.456577 1.394595,1.456577 h 1.456577 v 3.40901 z"
         style="font-weight:bold;font-family:Streetvertising;-inkscape-font-specification:'Streetvertising Bold'"
         id="path36274" />
      <path
         d="m 59.745856,18.408331 q -0.960721,-0.960721 -2.138379,-0.960721 -1.022703,0 -1.766487,0.712793 -0.836757,0.836757 -0.836757,2.262342 v 9.731174 h -4.02883 v -16.14631 h 3.935857 v 1.54955 q 1.456577,-1.735496 4.059821,-1.735496 2.293334,0 3.811893,1.518559 z"
         style="font-weight:bold;font-family:Streetvertising;-inkscape-font-specification:'Streetvertising Bold'"
         id="path36276" />
      <path
         d="m 69.06882,26.373017 q -0.371892,-0.185946 -0.650811,-0.433874 -0.898739,-0.92973 -0.898739,-3.935857 0,-2.975136 0.898739,-3.873874 0.712793,-0.712793 1.85946,-0.712793 1.177658,0 1.890451,0.712793 0.92973,0.898738 0.92973,3.873874 0,3.006127 -0.92973,3.935857 -0.216937,0.185946 -0.526847,0.371892 v 3.811893 q 2.231352,-0.371892 3.656938,-1.85946 1.797478,-1.890451 1.797478,-6.260182 0,-4.338739 -1.797478,-6.22919 -1.85946,-1.983424 -5.020542,-1.983424 -3.0991,0 -4.95856,1.983424 -1.828468,1.890451 -1.828468,6.22919 0,4.369731 1.828468,6.260182 1.425586,1.54955 3.749911,1.890451 z"
         style="font-weight:bold;font-family:Streetvertising;-inkscape-font-specification:'Streetvertising Bold'"
         id="path36278" />
      <path
         d="m 87.607731,30.153919 h -3.161082 l -5.950271,-16.14631 h 4.245767 l 3.285045,9.979101 3.254055,-9.979101 h 4.245767 z"
         style="font-weight:bold;font-family:Streetvertising;-inkscape-font-specification:'Streetvertising Bold'"
         id="path36280" />
      <path
         d="m 105.18544,30.153919 v -1.487568 q -1.58054,1.673514 -4.02883,1.673514 -2.386307,0 -3.811893,-1.425586 -1.642523,-1.642523 -1.642523,-4.586668 V 14.007609 h 4.02883 v 9.762164 q 0,1.518559 0.867746,2.293334 0.7128,0.650811 1.79748,0.650811 1.11568,0 1.82847,-0.650811 0.86775,-0.774775 0.86775,-2.293334 v -9.762164 h 4.02883 v 16.14631 z"
         style="font-weight:bold;font-family:Streetvertising;-inkscape-font-specification:'Streetvertising Bold'"
         id="path36282" />
    </g>
    <g
       aria-label="SEARCH WITH SHORTCUTS."
       id="text37302"
       style="font-size:14.6667px;line-height:1.25;fill:#999999">
      <path
         d="m 117.20931,27.010815 q 0,1.481337 -1.11467,2.346672 -1.07067,0.821335 -2.75734,0.821335 -2.44934,0 -3.81334,-1.378669 l 1.32,-1.320003 q 0.88001,0.880002 2.52268,0.880002 1.848,0 1.848,-1.29067 0,-0.572001 -0.32267,-0.880002 -0.29333,-0.264001 -0.924,-0.366668 l -1.26134,-0.176 q -1.33467,-0.190667 -2.024,-0.865335 -0.748,-0.748002 -0.748,-2.053338 0,-1.42267 0.968,-2.288006 0.99734,-0.880002 2.66934,-0.880002 2.112,0 3.37334,1.217336 l -1.29067,1.276003 q -0.748,-0.718668 -2.14134,-0.718668 -0.77733,0 -1.21733,0.396001 -0.396,0.352001 -0.396,0.924002 0,0.454668 0.308,0.748002 0.352,0.322667 0.968,0.410667 l 1.232,0.176001 q 1.32,0.190667 1.99467,0.806668 0.80667,0.762669 0.80667,2.214672 z"
         style="font-weight:bold;font-family:Streetvertising;-inkscape-font-specification:'Streetvertising Bold';fill:#999999"
         id="path918" />
      <path
         d="m 119.14234,30.090822 v -10.44269 h 6.87868 v 1.81867 h -4.84001 v 2.449339 h 4.12134 v 1.818671 h -4.12134 v 2.537339 h 4.84001 v 1.818671 z"
         style="font-weight:bold;font-family:Streetvertising;-inkscape-font-specification:'Streetvertising Bold';fill:#999999"
         id="path920" />
      <path
         d="m 130.7359,19.633465 -3.79867,10.457357 h 2.12667 l 0.63067,-1.848004 h 2.43467 l -0.572,-1.716004 h -1.29067 l 1.32,-3.813342 1.81867,5.529346 h 0.0147 l 0.616,1.848004 h 2.12667 l -3.81334,-10.457357 z"
         style="font-weight:bold;font-family:Streetvertising;-inkscape-font-specification:'Streetvertising Bold';fill:#999999"
         id="path922" />
      <path
         d="m 139.42845,21.466802 h 1.92133 q 0.66001,0 1.07067,0.381335 0.41067,0.381334 0.41067,0.997335 0,0.616002 -0.41067,0.997336 -0.41066,0.381334 -1.07067,0.381334 h -0.0733 v 2.464006 l 1.65734,3.402674 h 2.36134 l -2.33201,-4.502677 q 0.82134,-0.293334 1.33467,-0.953335 0.572,-0.748002 0.572,-1.789338 0,-1.364003 -0.89467,-2.258672 -0.93866,-0.938668 -2.49333,-0.938668 h -4.09201 v 10.44269 h 2.03867 z"
         style="font-weight:bold;font-family:Streetvertising;-inkscape-font-specification:'Streetvertising Bold';fill:#999999"
         id="path924" />
      <path
         d="m 154.3195,26.878815 q -0.264,1.569337 -1.30534,2.449339 -1.012,0.850668 -2.53734,0.850668 -1.672,0 -2.816,-1.144002 -0.67467,-0.674668 -0.85067,-1.569337 -0.176,-0.880002 -0.176,-2.596006 0,-1.716004 0.176,-2.596006 0.176,-0.894669 0.85067,-1.569337 1.144,-1.144003 2.816,-1.144003 1.52534,0 2.53734,0.850669 1.04134,0.880002 1.30534,2.449339 h -2.068 q -0.36667,-1.481337 -1.76001,-1.481337 -0.85067,0 -1.30533,0.542668 -0.51334,0.542668 -0.51334,2.948007 0,2.405339 0.51334,2.948007 0.45466,0.542668 1.30533,0.542668 1.39334,0 1.76001,-1.481337 z"
         style="font-weight:bold;font-family:Streetvertising;-inkscape-font-specification:'Streetvertising Bold';fill:#999999"
         id="path926" />
      <path
         d="m 161.64025,30.090822 v -4.370676 h -3.53468 v 4.370676 h -2.03867 v -10.44269 h 2.03867 v 4.268009 h 3.53468 v -4.268009 h 2.03867 v 10.44269 z"
         style="font-weight:bold;font-family:Streetvertising;-inkscape-font-specification:'Streetvertising Bold';fill:#999999"
         id="path928" />
      <path
         d="m 178.43316,30.090822 h -1.70134 l -1.92133,-6.336014 -1.92134,6.336014 h -1.70134 l -2.78667,-10.44269 h 2.12667 l 1.61334,6.585348 1.90667,-6.585348 h 1.52533 l 1.90667,6.585348 1.62801,-6.585348 h 2.12667 z"
         style="font-weight:bold;font-family:Streetvertising;-inkscape-font-specification:'Streetvertising Bold';fill:#999999"
         id="path930" />
      <path
         d="m 182.53571,30.090822 v -10.44269 h 2.03867 v 10.44269 z"
         style="font-weight:bold;font-family:Streetvertising;-inkscape-font-specification:'Streetvertising Bold';fill:#999999"
         id="path932" />
      <path
         d="m 190.99382,21.466802 v 8.62402 h -2.03867 v -8.62402 h -2.72801 v -1.81867 h 7.49468 v 1.81867 z"
         style="font-weight:bold;font-family:Streetvertising;-inkscape-font-specification:'Streetvertising Bold';fill:#999999"
         id="path934" />
      <path
         d="m 200.94242,30.090822 v -4.370676 h -3.53467 v 4.370676 h -2.03867 v -10.44269 h 2.03867 v 4.268009 h 3.53467 v -4.268009 h 2.03867 v 10.44269 z"
         style="font-weight:bold;font-family:Streetvertising;-inkscape-font-specification:'Streetvertising Bold';fill:#999999"
         id="path936" />
      <path
         d="m 215.57933,27.010815 q 0,1.481337 -1.11467,2.346672 -1.07067,0.821335 -2.75734,0.821335 -2.44934,0 -3.81334,-1.378669 l 1.32,-1.320003 q 0.88,0.880002 2.52267,0.880002 1.84801,0 1.84801,-1.29067 0,-0.572001 -0.32267,-0.880002 -0.29333,-0.264001 -0.924,-0.366668 l -1.26134,-0.176 q -1.33467,-0.190667 -2.024,-0.865335 -0.748,-0.748002 -0.748,-2.053338 0,-1.42267 0.968,-2.288006 0.99733,-0.880002 2.66934,-0.880002 2.112,0 3.37334,1.217336 l -1.29067,1.276003 q -0.748,-0.718668 -2.14134,-0.718668 -0.77733,0 -1.21734,0.396001 -0.396,0.352001 -0.396,0.924002 0,0.454668 0.308,0.748002 0.352,0.322667 0.96801,0.410667 l 1.232,0.176001 q 1.32,0.190667 1.99467,0.806668 0.80667,0.762669 0.80667,2.214672 z"
         style="font-weight:bold;font-family:Streetvertising;-inkscape-font-specification:'Streetvertising Bold';fill:#999999"
         id="path938" />
      <path
         d="m 223.0857,30.090822 v -4.370676 h -3.53467 v 4.370676 h -2.03867 v -10.44269 h 2.03867 v 4.268009 h 3.53467 v -4.268009 h 2.03867 v 10.44269 z"
         style="font-weight:bold;font-family:Streetvertising;-inkscape-font-specification:'Streetvertising Bold';fill:#999999"
         id="path940" />
      <path
         d="m 228.27107,28.99082 q 0.89467,0.894668 2.14134,1.085336 v -1.877338 q -0.41067,-0.146667 -0.64534,-0.425334 -0.49867,-0.542668 -0.49867,-2.88934 0,-2.361339 0.49867,-2.904007 0.484,-0.542668 1.30534,-0.542668 0.80667,0 1.29067,0.542668 0.49867,0.557335 0.49867,2.904007 0,2.332005 -0.49867,2.88934 -0.27867,0.322667 -0.748,0.469334 v 1.848004 q 1.29067,-0.161333 2.244,-1.100002 0.704,-0.704002 0.89467,-1.774671 0.132,-0.660002 0.132,-2.332005 0,-1.686671 -0.132,-2.346672 -0.19067,-1.07067 -0.89467,-1.774671 -1.12933,-1.129336 -2.78667,-1.129336 -1.672,0 -2.80134,1.129336 -0.704,0.704001 -0.89467,1.774671 -0.11733,0.645334 -0.11733,2.346672 0,1.701337 0.11733,2.332005 0.19067,1.070669 0.89467,1.774671 z"
         style="font-weight:bold;font-family:Streetvertising;-inkscape-font-specification:'Streetvertising Bold';fill:#999999"
         id="path942" />
      <path
         d="m 239.05889,21.466802 h 1.92133 q 0.66001,0 1.07067,0.381335 0.41067,0.381334 0.41067,0.997335 0,0.616002 -0.41067,0.997336 -0.41066,0.381334 -1.07067,0.381334 h -0.0733 v 2.464006 l 1.65734,3.402674 h 2.36134 l -2.33201,-4.502677 q 0.82134,-0.293334 1.33467,-0.953335 0.572,-0.748002 0.572,-1.789338 0,-1.364003 -0.89467,-2.258672 -0.93866,-0.938668 -2.49334,-0.938668 h -4.092 v 10.44269 h 2.03867 z"
         style="font-weight:bold;font-family:Streetvertising;-inkscape-font-specification:'Streetvertising Bold';fill:#999999"
         id="path944" />
      <path
         d="m 250.60593,21.466802 v 8.62402 h -2.03867 v -8.62402 h -2.72801 v -1.81867 h 7.49469 v 1.81867 z"
         style="font-weight:bold;font-family:Streetvertising;-inkscape-font-specification:'Streetvertising Bold';fill:#999999"
         id="path946" />
      <path
         d="m 262.02808,26.878815 q -0.264,1.569337 -1.30534,2.449339 -1.012,0.850668 -2.53734,0.850668 -1.672,0 -2.816,-1.144002 -0.67467,-0.674668 -0.85067,-1.569337 -0.176,-0.880002 -0.176,-2.596006 0,-1.716004 0.176,-2.596006 0.176,-0.894669 0.85067,-1.569337 1.144,-1.144003 2.816,-1.144003 1.52534,0 2.53734,0.850669 1.04134,0.880002 1.30534,2.449339 h -2.068 q -0.36667,-1.481337 -1.76001,-1.481337 -0.85067,0 -1.30533,0.542668 -0.51334,0.542668 -0.51334,2.948007 0,2.405339 0.51334,2.948007 0.45466,0.542668 1.30533,0.542668 1.39334,0 1.76001,-1.481337 z"
         style="font-weight:bold;font-family:Streetvertising;-inkscape-font-specification:'Streetvertising Bold';fill:#999999"
         id="path948" />
      <path
         d="m 271.2995,26.512147 q 0,1.628004 -1.11467,2.66934 -1.08534,0.997335 -2.72801,0.997335 -1.64267,0 -2.728,-0.997335 -1.11467,-1.041336 -1.11467,-2.66934 v -6.864015 h 2.03867 v 6.790682 q 0,0.894669 0.484,1.408003 0.484,0.513335 1.32,0.513335 0.836,0 1.32,-0.513335 0.49867,-0.513334 0.49867,-1.408003 v -6.790682 h 2.02401 z"
         style="font-weight:bold;font-family:Streetvertising;-inkscape-font-specification:'Streetvertising Bold';fill:#999999"
         id="path950" />
      <path
         d="m 277.56173,21.466802 v 8.62402 h -2.03867 v -8.62402 h -2.72801 v -1.81867 h 7.49468 v 1.81867 z"
         style="font-weight:bold;font-family:Streetvertising;-inkscape-font-specification:'Streetvertising Bold';fill:#999999"
         id="path952" />
      <path
         d="m 288.68366,27.010815 q 0,1.481337 -1.11467,2.346672 -1.07067,0.821335 -2.75734,0.821335 -2.44934,0 -3.81334,-1.378669 l 1.32,-1.320003 q 0.88001,0.880002 2.52268,0.880002 1.848,0 1.848,-1.29067 0,-0.572001 -0.32267,-0.880002 -0.29333,-0.264001 -0.924,-0.366668 l -1.26134,-0.176 q -1.33467,-0.190667 -2.024,-0.865335 -0.748,-0.748002 -0.748,-2.053338 0,-1.42267 0.968,-2.288006 0.99734,-0.880002 2.66934,-0.880002 2.112,0 3.37334,1.217336 l -1.29067,1.276003 q -0.748,-0.718668 -2.14134,-0.718668 -0.77733,0 -1.21733,0.396001 -0.396,0.352001 -0.396,0.924002 0,0.454668 0.308,0.748002 0.352,0.322667 0.968,0.410667 l 1.232,0.176001 q 1.32,0.190667 1.99467,0.806668 0.80667,0.762669 0.80667,2.214672 z"
         style="font-weight:bold;font-family:Streetvertising;-inkscape-font-specification:'Streetvertising Bold';fill:#999999"
         id="path954" />
      <path
         d="m 290.3967,30.090822 v -2.170671 h 2.18533 v 2.170671 z"
         style="font-weight:bold;font-family:Streetvertising;-inkscape-font-specification:'Streetvertising Bold';fill:#999999"
         id="path956" />
    </g>
  </g>
</svg>
