<?xml version="1.0" encoding="UTF-8" standalone="no"?>
<!-- Created with Inkscape (http://www.inkscape.org/) -->

<svg
   width="200"
   height="40"
   id="svg4186"
   version="1.1"
   inkscape:version="1.2.2 (b0a84865, 2022-12-01)"
   sodipodi:docname="tro.black.2lines.svg"
   inkscape:export-filename="/Users/jorge/code/serchilo/design/logo/white.png"
   inkscape:export-xdpi="342.09"
   inkscape:export-ydpi="342.09"
   xmlns:inkscape="http://www.inkscape.org/namespaces/inkscape"
   xmlns:sodipodi="http://sodipodi.sourceforge.net/DTD/sodipodi-0.dtd"
   xmlns="http://www.w3.org/2000/svg"
   xmlns:svg="http://www.w3.org/2000/svg"
   xmlns:rdf="http://www.w3.org/1999/02/22-rdf-syntax-ns#"
   xmlns:cc="http://creativecommons.org/ns#"
   xmlns:dc="http://purl.org/dc/elements/1.1/">
  <defs
     id="defs4188" />
  <sodipodi:namedview
     inkscape:document-units="mm"
     pagecolor="#343a40"
     bordercolor="#666666"
     borderopacity="1.0"
     inkscape:pageopacity="1"
     inkscape:pageshadow="2"
     inkscape:zoom="2.1899918"
     inkscape:cx="117.35204"
     inkscape:cy="75.114436"
     inkscape:current-layer="text37302"
     id="namedview4190"
     showgrid="false"
     units="px"
     showborder="true"
     inkscape:showpageshadow="false"
     inkscape:window-width="1389"
     inkscape:window-height="847"
     inkscape:window-x="51"
     inkscape:window-y="25"
     inkscape:window-maximized="1"
     showguides="true"
     inkscape:guide-bbox="true"
     inkscape:pagecheckerboard="0"
     inkscape:deskcolor="#343a40" />
  <metadata
     id="metadata4192">
    <rdf:RDF>
      <cc:Work
         rdf:about="">
        <dc:format>image/svg+xml</dc:format>
        <dc:type
           rdf:resource="http://purl.org/dc/dcmitype/StillImage" />
      </cc:Work>
    </rdf:RDF>
  </metadata>
  <g
     inkscape:label="Layer 1"
     inkscape:groupmode="layer"
     id="layer1">
    <path
       style="fill:#487b7f;fill-opacity:1;stroke:none;stroke-width:0.176389"
       d="M 3.501167,7.5106132 C 2.3823187,7.5106015 1.4226017,8.0596535 0.7813403,8.870691 l 14.7567587,8.477705 -3e-5,5.468913 -14.6988881,8.420127 c 0.6423223,0.774831 1.5723186,1.273177 2.6619991,1.273159 l 17.99743,1.8e-5 c 1.943016,5e-6 3.50112,-1.558023 3.501195,-3.501156 l 1.3e-5,-17.968266 C 24.999875,9.0977359 23.441755,7.5106776 21.498844,7.5106776 L 3.501321,7.510666 Z M 0,15.062675 6e-6,25.103435 9.143578,20.126253 Z"
       id="rect5356-0-2-07-4-3-2-1-6-8-4-5-5-3-7-8-0"
       inkscape:connector-curvature="0"
       inkscape:export-filename="/Users/jrg/cde/web/tro/design/logo/logo.png"
       inkscape:export-xdpi="95.999298"
       inkscape:export-ydpi="95.999298" />
    <g
       aria-label="trovu"
       id="text5975"
       style="font-size:30.991px;line-height:1.25;fill:#ffffff;stroke-width:0.774775"
       transform="matrix(0.99999273,0,0,0.99999273,-7.4999455,5.4616842e-5)">
      <path
         d="m 45.131663,30.153919 q -2.293334,0 -3.563965,-1.456577 -1.115676,-1.270631 -1.115676,-3.161082 v -7.995677 h -1.704505 v -3.068109 h 1.704505 V 9.6998597 h 4.02883 v 4.7726143 h 2.851172 v 3.068109 h -2.851172 v 7.747749 q 0,1.456577 1.394595,1.456577 h 1.456577 v 3.40901 z"
         style="font-weight:bold;font-family:Streetvertising;-inkscape-font-specification:'Streetvertising Bold'"
         id="path36274" />
      <path
         d="m 59.745856,18.408331 q -0.960721,-0.960721 -2.138379,-0.960721 -1.022703,0 -1.766487,0.712793 -0.836757,0.836757 -0.836757,2.262342 v 9.731174 h -4.02883 v -16.14631 h 3.935857 v 1.54955 q 1.456577,-1.735496 4.059821,-1.735496 2.293334,0 3.811893,1.518559 z"
         style="font-weight:bold;font-family:Streetvertising;-inkscape-font-specification:'Streetvertising Bold'"
         id="path36276" />
      <path
         d="m 69.06882,26.373017 q -0.371892,-0.185946 -0.650811,-0.433874 -0.898739,-0.92973 -0.898739,-3.935857 0,-2.975136 0.898739,-3.873874 0.712793,-0.712793 1.85946,-0.712793 1.177658,0 1.890451,0.712793 0.92973,0.898738 0.92973,3.873874 0,3.006127 -0.92973,3.935857 -0.216937,0.185946 -0.526847,0.371892 v 3.811893 q 2.231352,-0.371892 3.656938,-1.85946 1.797478,-1.890451 1.797478,-6.260182 0,-4.338739 -1.797478,-6.22919 -1.85946,-1.983424 -5.020542,-1.983424 -3.0991,0 -4.95856,1.983424 -1.828468,1.890451 -1.828468,6.22919 0,4.369731 1.828468,6.260182 1.425586,1.54955 3.749911,1.890451 z"
         style="font-weight:bold;font-family:Streetvertising;-inkscape-font-specification:'Streetvertising Bold'"
         id="path36278" />
      <path
         d="m 87.607731,30.153919 h -3.161082 l -5.950271,-16.14631 h 4.245767 l 3.285045,9.979101 3.254055,-9.979101 h 4.245767 z"
         style="font-weight:bold;font-family:Streetvertising;-inkscape-font-specification:'Streetvertising Bold'"
         id="path36280" />
      <path
         d="m 105.18544,30.153919 v -1.487568 q -1.58054,1.673514 -4.02883,1.673514 -2.386307,0 -3.811893,-1.425586 -1.642523,-1.642523 -1.642523,-4.586668 V 14.007609 h 4.02883 v 9.762164 q 0,1.518559 0.867746,2.293334 0.7128,0.650811 1.79748,0.650811 1.11568,0 1.82847,-0.650811 0.86775,-0.774775 0.86775,-2.293334 v -9.762164 h 4.02883 v 16.14631 z"
         style="font-weight:bold;font-family:Streetvertising;-inkscape-font-specification:'Streetvertising Bold'"
         id="path36282" />
    </g>
    <g
       aria-label="SEARCH WITH SHORTCUTS."
       id="text37302"
       style="font-size:14.6667px;line-height:1.25;fill:#999999">
      <path
         d="m 118.38831,15.477997 q 0,1.141838 -0.8592,1.808852 -0.82528,0.633096 -2.1254,0.633096 -1.88799,0 -2.93938,-1.062699 l 1.01748,-1.017478 q 0.67832,0.678319 1.94452,0.678319 1.42446,0 1.42446,-0.994869 0,-0.440907 -0.24871,-0.678319 -0.22611,-0.203496 -0.71223,-0.282633 l -0.97227,-0.135664 q -1.02879,-0.14697 -1.56013,-0.667013 -0.57657,-0.576572 -0.57657,-1.582747 0,-1.096615 0.74614,-1.763629 0.76878,-0.6783201 2.05759,-0.6783201 1.62795,0 2.60021,0.9383421 l -0.99487,0.983563 q -0.57657,-0.553961 -1.65058,-0.553961 -0.59917,0 -0.93833,0.305244 -0.30524,0.271327 -0.30524,0.712236 0,0.350465 0.2374,0.576571 0.27133,0.248716 0.74615,0.316548 l 0.94965,0.135665 q 1.01748,0.146968 1.53752,0.621792 0.62179,0.587877 0.62179,1.707104 z"
         style="font-weight:bold;font-family:Streetvertising;-inkscape-font-specification:'Streetvertising Bold';fill:#999999;stroke-width:0.770817"
         id="path918" />
      <path
         d="M 119.87832,17.852115 V 9.8027257 h 5.3022 v 1.4018593 h -3.73075 v 1.887988 h 3.17679 v 1.401861 h -3.17679 v 1.955821 h 3.73075 v 1.40186 z"
         style="font-weight:bold;font-family:Streetvertising;-inkscape-font-specification:'Streetvertising Bold';fill:#999999;stroke-width:0.770817"
         id="path920" />
      <path
         d="m 128.81482,9.7914195 -2.92807,8.0606955 h 1.63926 l 0.48613,-1.424471 h 1.87669 l -0.44091,-1.322722 h -0.99487 l 1.01749,-2.939385 1.40185,4.262107 h 0.0113 l 0.47482,1.424471 h 1.63928 L 130.0584,9.7914195 Z"
         style="font-weight:bold;font-family:Streetvertising;-inkscape-font-specification:'Streetvertising Bold';fill:#999999;stroke-width:0.770817"
         id="path922" />
      <path
         d="m 135.51518,11.204585 h 1.481 q 0.50874,0 0.82528,0.293939 0.31655,0.293938 0.31655,0.768761 0,0.474824 -0.31655,0.768762 -0.31654,0.29394 -0.82528,0.29394 h -0.0564 v 1.899293 l 1.2775,2.622835 h 1.82016 l -1.79755,-3.470735 q 0.6331,-0.226106 1.02877,-0.734845 0.44091,-0.576571 0.44091,-1.37925 0,-1.051395 -0.68963,-1.74102 -0.72353,-0.7235393 -1.92188,-0.7235393 h -3.1542 v 8.0493893 h 1.57144 z"
         style="font-weight:bold;font-family:Streetvertising;-inkscape-font-specification:'Streetvertising Bold';fill:#999999;stroke-width:0.770817"
         id="path924" />
      <path
         d="m 146.99344,15.376249 q -0.2035,1.20967 -1.00618,1.88799 -0.78006,0.655706 -1.95583,0.655706 -1.2888,0 -2.17061,-0.881813 -0.52005,-0.520045 -0.65571,-1.209669 -0.13566,-0.67832 -0.13566,-2.001042 0,-1.322724 0.13566,-2.001043 0.13566,-0.689624 0.65571,-1.20967 0.88181,-0.8818151 2.17061,-0.8818151 1.17577,0 1.95583,0.6557091 0.80268,0.67832 1.00618,1.88799 h -1.59405 q -0.28263,-1.141838 -1.35665,-1.141838 -0.65571,0 -1.00617,0.418296 -0.39569,0.418297 -0.39569,2.272371 0,1.854072 0.39569,2.27237 0.35046,0.418296 1.00617,0.418296 1.07402,0 1.35665,-1.141838 z"
         style="font-weight:bold;font-family:Streetvertising;-inkscape-font-specification:'Streetvertising Bold';fill:#999999;stroke-width:0.770817"
         id="path926" />
      <path
         d="m 152.63639,17.852115 v -3.368986 h -2.7246 v 3.368986 h -1.57143 V 9.8027257 h 1.57143 v 3.2898473 h 2.7246 V 9.8027257 h 1.57143 v 8.0493893 z"
         style="font-weight:bold;font-family:Streetvertising;-inkscape-font-specification:'Streetvertising Bold';fill:#999999;stroke-width:0.770817"
         id="path928" />
      <path
         d="m 165.58062,17.852115 h -1.31141 l -1.481,-4.883899 -1.48101,4.883899 h -1.3114 l -2.14802,-8.0493893 h 1.63926 l 1.2436,5.0760893 1.46969,-5.0760893 h 1.17575 l 1.46968,5.0760893 1.25491,-5.0760893 h 1.63927 z"
         style="font-weight:bold;font-family:Streetvertising;-inkscape-font-specification:'Streetvertising Bold';fill:#999999;stroke-width:0.770817"
         id="path930" />
      <path
         d="M 168.74293,17.852115 V 9.8027257 h 1.57143 v 8.0493893 z"
         style="font-weight:bold;font-family:Streetvertising;-inkscape-font-specification:'Streetvertising Bold';fill:#999999;stroke-width:0.770817"
         id="path932" />
      <path
         d="m 175.26258,11.204585 v 6.64753 h -1.57145 v -6.64753 h -2.10279 V 9.8027257 h 5.77702 v 1.4018593 z"
         style="font-weight:bold;font-family:Streetvertising;-inkscape-font-specification:'Streetvertising Bold';fill:#999999;stroke-width:0.770817"
         id="path934" />
      <path
         d="m 182.93111,17.852115 v -3.368986 h -2.72458 v 3.368986 h -1.57144 V 9.8027257 h 1.57144 v 3.2898473 h 2.72458 V 9.8027257 h 1.57144 v 8.0493893 z"
         style="font-weight:bold;font-family:Streetvertising;-inkscape-font-specification:'Streetvertising Bold';fill:#999999;stroke-width:0.770817"
         id="path936" />
      <path
         d="m 118.38733,27.808017 q 0,1.141646 -0.85907,1.808547 -0.82515,0.632992 -2.12505,0.632992 -1.88766,0 -2.93888,-1.062521 l 1.0173,-1.017309 q 0.67821,0.678206 1.94419,0.678206 1.42423,0 1.42423,-0.994701 0,-0.440834 -0.24867,-0.678206 -0.22607,-0.203463 -0.71211,-0.282587 l -0.9721,-0.13564 q -1.02861,-0.146945 -1.55988,-0.666902 -0.57647,-0.576475 -0.57647,-1.58248 0,-1.096432 0.74604,-1.763335 0.76862,-0.678205 2.05722,-0.678205 1.62768,0 2.59978,0.938184 l -0.9947,0.983398 q -0.57647,-0.553868 -1.65031,-0.553868 -0.59907,0 -0.93818,0.305193 -0.30519,0.271282 -0.30519,0.712116 0,0.350406 0.23737,0.576474 0.27129,0.248676 0.74603,0.316496 l 0.94949,0.135641 q 1.01731,0.146946 1.53726,0.621688 0.6217,0.587779 0.6217,1.706819 z"
         style="font-weight:bold;font-family:Streetvertising;-inkscape-font-specification:'Streetvertising Bold';fill:#999999;stroke-width:0.770686"
         id="path938" />
      <path
         d="m 124.17238,30.181736 v -3.36842 h -2.72412 v 3.36842 h -1.57118 v -8.04804 h 1.57118 v 3.289297 h 2.72412 v -3.289297 h 1.57117 v 8.04804 z"
         style="font-weight:bold;font-family:Streetvertising;-inkscape-font-specification:'Streetvertising Bold';fill:#999999;stroke-width:0.770686"
         id="path940" />
      <path
         d="m 128.16867,29.333979 q 0.68951,0.689509 1.6503,0.836453 v -1.446838 q -0.3165,-0.113034 -0.49735,-0.3278 -0.38432,-0.418227 -0.38432,-2.226775 0,-1.819852 0.38432,-2.238079 0.37301,-0.418225 1.00601,-0.418225 0.62169,0 0.9947,0.418225 0.38431,0.429532 0.38431,2.238079 0,1.797245 -0.38431,2.226775 -0.21476,0.248675 -0.57647,0.36171 v 1.424232 q 0.99471,-0.124337 1.72942,-0.847757 0.54256,-0.542565 0.68951,-1.367715 0.10171,-0.508654 0.10171,-1.797245 0,-1.299893 -0.10171,-1.808547 -0.14695,-0.82515 -0.68951,-1.367715 -0.87036,-0.870365 -2.14765,-0.870365 -1.28859,0 -2.15896,0.870365 -0.54257,0.542565 -0.6895,1.367715 -0.0904,0.49735 -0.0904,1.808547 0,1.311198 0.0904,1.797245 0.14693,0.82515 0.6895,1.367715 z"
         style="font-weight:bold;font-family:Streetvertising;-inkscape-font-specification:'Streetvertising Bold';fill:#999999;stroke-width:0.770686"
         id="path942" />
      <path
         d="m 136.4827,23.535322 h 1.48074 q 0.50866,0 0.82515,0.293889 0.3165,0.293888 0.3165,0.768632 0,0.474744 -0.3165,0.768634 -0.31648,0.293888 -0.82515,0.293888 h -0.0565 v 1.898977 l 1.2773,2.622394 h 1.81985 l -1.79726,-3.470152 q 0.633,-0.22607 1.02862,-0.734723 0.44084,-0.576475 0.44084,-1.379018 0,-1.051218 -0.68952,-1.740728 -0.72341,-0.723419 -1.92158,-0.723419 h -3.15364 v 8.04804 h 1.57116 z"
         style="font-weight:bold;font-family:Streetvertising;-inkscape-font-specification:'Streetvertising Bold';fill:#999999;stroke-width:0.770686"
         id="path944" />
      <path
         d="m 145.38185,23.535322 v 6.646414 h -1.57118 v -6.646414 h -2.10243 v -1.401626 h 5.77604 v 1.401626 z"
         style="font-weight:bold;font-family:Streetvertising;-inkscape-font-specification:'Streetvertising Bold';fill:#999999;stroke-width:0.770686"
         id="path946" />
      <path
         d="m 154.18474,27.706285 q -0.20346,1.209468 -1.00601,1.887673 -0.77992,0.655598 -1.95548,0.655598 -1.28859,0 -2.17027,-0.881667 -0.51995,-0.519957 -0.65559,-1.209466 -0.13564,-0.678206 -0.13564,-2.000707 0,-1.322501 0.13564,-2.000706 0.13564,-0.689509 0.65559,-1.209467 0.88168,-0.881667 2.17027,-0.881667 1.17556,0 1.95548,0.655599 0.80255,0.678205 1.00601,1.887672 h -1.59379 q -0.28257,-1.141646 -1.3564,-1.141646 -0.6556,0 -1.00601,0.418226 -0.39562,0.418226 -0.39562,2.271989 0,1.853762 0.39562,2.271989 0.35041,0.418227 1.00601,0.418227 1.07383,0 1.3564,-1.141647 z"
         style="font-weight:bold;font-family:Streetvertising;-inkscape-font-specification:'Streetvertising Bold';fill:#999999;stroke-width:0.770686"
         id="path948" />
      <path
         d="m 161.3301,27.4237 q 0,1.25468 -0.85906,2.057223 -0.83646,0.768633 -2.10243,0.768633 -1.26599,0 -2.10244,-0.768633 Q 155.4071,28.67838 155.4071,27.4237 v -5.290004 h 1.57117 v 5.233487 q 0,0.689509 0.37302,1.085129 0.37301,0.39562 1.01732,0.39562 0.64429,0 1.01729,-0.39562 0.38433,-0.39562 0.38433,-1.085129 v -5.233487 h 1.55987 z"
         style="font-weight:bold;font-family:Streetvertising;-inkscape-font-specification:'Streetvertising Bold';fill:#999999;stroke-width:0.770686"
         id="path950" />
      <path
         d="m 166.15632,23.535322 v 6.646414 h -1.57118 v -6.646414 h -2.10244 v -1.401626 h 5.77604 v 1.401626 z"
         style="font-weight:bold;font-family:Streetvertising;-inkscape-font-specification:'Streetvertising Bold';fill:#999999;stroke-width:0.770686"
         id="path952" />
      <path
         d="m 174.72784,27.808017 q 0,1.141646 -0.85907,1.808547 -0.82515,0.632992 -2.12504,0.632992 -1.88767,0 -2.93889,-1.062521 l 1.01731,-1.017309 q 0.67821,0.678206 1.94419,0.678206 1.42424,0 1.42424,-0.994701 0,-0.440834 -0.24869,-0.678206 -0.22607,-0.203463 -0.71211,-0.282587 l -0.9721,-0.13564 q -1.02861,-0.146945 -1.55986,-0.666902 -0.57648,-0.576475 -0.57648,-1.58248 0,-1.096432 0.74602,-1.763335 0.76864,-0.678205 2.05723,-0.678205 1.62769,0 2.59978,0.938184 l -0.9947,0.983398 q -0.57646,-0.553868 -1.6503,-0.553868 -0.59908,0 -0.93818,0.305193 -0.30519,0.271282 -0.30519,0.712116 0,0.350406 0.23738,0.576474 0.27128,0.248676 0.74601,0.316496 l 0.94949,0.135641 q 1.01731,0.146946 1.53726,0.621688 0.6217,0.587779 0.6217,1.706819 z"
         style="font-weight:bold;font-family:Streetvertising;-inkscape-font-specification:'Streetvertising Bold';fill:#999999;stroke-width:0.770686"
         id="path954" />
      <path
         d="m 176.04805,30.181736 v -1.672907 h 1.6842 v 1.672907 z"
         style="font-weight:bold;font-family:Streetvertising;-inkscape-font-specification:'Streetvertising Bold';fill:#999999;stroke-width:0.770686"
         id="path956" />
    </g>
  </g>
</svg>
