<?xml version="1.0" encoding="UTF-8" standalone="no"?>
<!-- Created with Inkscape (http://www.inkscape.org/) -->

<svg
   width="70mm"
   height="24mm"
   viewBox="0 0 70 24"
   version="1.1"
   id="svg669"
   inkscape:version="1.2.2 (b0a84865, 2022-12-01)"
   sodipodi:docname="sketch.svg"
   xml:space="preserve"
   xmlns:inkscape="http://www.inkscape.org/namespaces/inkscape"
   xmlns:sodipodi="http://sodipodi.sourceforge.net/DTD/sodipodi-0.dtd"
   xmlns="http://www.w3.org/2000/svg"
   xmlns:svg="http://www.w3.org/2000/svg"><sodipodi:namedview
     id="namedview671"
     pagecolor="#ffffff"
     bordercolor="#666666"
     borderopacity="1.0"
     inkscape:showpageshadow="2"
     inkscape:pageopacity="0.0"
     inkscape:pagecheckerboard="0"
     inkscape:deskcolor="#d1d1d1"
     inkscape:document-units="mm"
     showgrid="false"
     inkscape:zoom="2.1841083"
     inkscape:cx="83.787055"
     inkscape:cy="47.845613"
     inkscape:window-width="1309"
     inkscape:window-height="737"
     inkscape:window-x="47"
     inkscape:window-y="25"
     inkscape:window-maximized="0"
     inkscape:current-layer="layer1" /><defs
     id="defs666" /><g
     inkscape:label="Layer 1"
     inkscape:groupmode="layer"
     id="layer1"><rect
       style="fill:none;stroke:#000000;stroke-width:0.2;stroke-miterlimit:1;stroke-dasharray:none;stroke-opacity:0.981928"
       id="rect842"
       width="46.363159"
       height="6.6761832"
       x="16.085722"
       y="6.2015042"
       ry="1.2912859" /><rect
       style="fill:#0000ff;fill-opacity:1;stroke:none;stroke-width:0.194953;stroke-miterlimit:1;stroke-opacity:0.5"
       id="rect842-0"
       width="5.5158944"
       height="7.0415521"
       x="64.05069"
       y="6.0190558"
       ry="0.98177916" /><text
       xml:space="preserve"
       style="font-style:italic;font-weight:bold;font-size:4.23333px;line-height:1.25;font-family:'Lobster 1.4';-inkscape-font-specification:'Lobster 1.4 Bold Italic';stroke-width:0.264583"
       x="20.103739"
       y="10.727262"
       id="text1499"><tspan
         sodipodi:role="line"
         id="tspan1497"
         style="font-style:normal;font-variant:normal;font-weight:normal;font-stretch:normal;font-size:4.23333px;font-family:Arial;-inkscape-font-specification:Arial;stroke-width:0.264583"
         x="20.103739"
         y="10.727262"><tspan
   style="font-style:normal;font-variant:normal;font-weight:bold;font-stretch:normal;font-family:Arial;-inkscape-font-specification:'Arial Bold'"
   id="tspan11441">gfl</tspan> berlin, nyc</tspan></text><text
       xml:space="preserve"
       style="font-style:italic;font-weight:bold;font-size:3.52778px;line-height:1.25;font-family:'Lobster 1.4';-inkscape-font-specification:'Lobster 1.4 Bold Italic';fill:#487b7f;fill-opacity:1;stroke-width:0.264583"
       x="0.049388919"
       y="2.5576406"
       id="text8369"><tspan
         sodipodi:role="line"
         style="font-style:normal;font-variant:normal;font-weight:bold;font-stretch:normal;font-size:3.52778px;font-family:'Bradley Hand';-inkscape-font-specification:'Bradley Hand Bold';fill:#487b7f;fill-opacity:1;stroke-width:0.264583"
         x="0.049388919"
         y="2.5576406"
         id="tspan11415"><tspan
           dx="0 0 0 0 0 0 0.1412473"
           id="tspan11407"
           style="font-style:normal;font-variant:normal;font-weight:bold;font-stretch:normal;font-size:3.52778px;font-family:'Bradley Hand';-inkscape-font-specification:'Bradley Hand Bold';fill:#487b7f;fill-opacity:1;stroke-width:0.264583">Start with a</tspan></tspan><tspan
         sodipodi:role="line"
         style="font-style:normal;font-variant:normal;font-weight:bold;font-stretch:normal;font-size:3.52778px;font-family:'Bradley Hand';-inkscape-font-specification:'Bradley Hand Bold';fill:#487b7f;fill-opacity:1;stroke-width:0.264583"
         x="0.049388919"
         y="7.1659713"
         dx="0.1412473 0 0 0 -0.15889785"
         id="tspan18827">keyword</tspan></text><g
       aria-label="⤴︎"
       transform="scale(1.0561623,-0.94682417)"
       id="text8369-1"
       style="font-style:italic;font-weight:bold;font-size:4.97525px;line-height:1.25;font-family:'Lobster 1.4';-inkscape-font-specification:'Lobster 1.4 Bold Italic';fill:#487b7f;stroke-width:0.373144"><path
         d="m 20.374691,-0.9186186 q 0.590325,0 0.898849,-0.272084 0.310953,-0.2720839 0.310953,-0.8672676 v -1.0154563 l -0.017,-0.4397071 0.25022,0.2890892 0.478576,0.4785763 q 0.03887,0.038869 0.08746,0.065592 0.04859,0.024293 0.111749,0.024293 0.114178,0 0.189487,-0.075309 0.07774,-0.077738 0.07774,-0.2016337 0,-0.1068901 -0.08746,-0.196775 L 21.511614,-4.295375 q -0.08503,-0.087456 -0.208922,-0.087456 -0.121466,0 -0.206492,0.087456 l -1.163645,1.1660741 q -0.08746,0.089885 -0.08746,0.196775 0,0.1238954 0.07531,0.2016337 0.07774,0.075309 0.191917,0.075309 0.06316,0 0.111748,-0.024293 0.05102,-0.026723 0.08746,-0.065592 l 0.476147,-0.4785763 0.252649,-0.2890892 -0.01701,0.4397071 v 0.9717285 q 0.0024,0.3473929 -0.155477,0.4858642 -0.155476,0.1384713 -0.49801,0.1384713 -0.08988,0 -0.162765,-0.00486 -0.07288,-0.00486 -0.133613,-0.00486 -0.121466,0 -0.199204,0.07045 -0.07774,0.07045 -0.07774,0.1943457 0,0.089885 0.0413,0.1481885 0.04373,0.058304 0.104461,0.0898849 0.06316,0.0340105 0.123895,0.0412985 0.08017,0.0145759 0.155477,0.0194346 0.07774,0.004859 0.153047,0.004859 z"
         style="font-family:sans-serif;-inkscape-font-specification:'sans-serif Bold Italic'"
         id="path574" /></g><g
       aria-label="⤴︎"
       transform="scale(-1.0561623,-0.94682417)"
       id="text8369-1-8"
       style="font-style:italic;font-weight:bold;font-size:4.97525px;line-height:1.25;font-family:'Lobster 1.4';-inkscape-font-specification:'Lobster 1.4 Bold Italic';fill:#487b7f;stroke-width:0.373144"><path
         d="m -33.269872,-0.77669946 q 0.590325,0 0.898848,-0.27208394 0.310954,-0.272084 0.310954,-0.8672677 v -1.0154562 l -0.01701,-0.4397072 0.25022,0.2890892 0.478577,0.4785763 q 0.03887,0.038869 0.08746,0.065592 0.04859,0.024293 0.111749,0.024293 0.114178,0 0.189487,-0.075309 0.07774,-0.077738 0.07774,-0.2016336 0,-0.1068901 -0.08745,-0.196775 l -1.163645,-1.1660742 q -0.08503,-0.087456 -0.208922,-0.087456 -0.121466,0 -0.206492,0.087456 l -1.163645,1.1660742 q -0.08745,0.089885 -0.08745,0.196775 0,0.1238954 0.07531,0.2016336 0.07774,0.075309 0.191916,0.075309 0.06316,0 0.111749,-0.024293 0.05101,-0.026722 0.08745,-0.065592 l 0.476147,-0.4785763 0.25265,-0.2890892 -0.01701,0.4397072 v 0.9717284 q 0.0024,0.347393 -0.155476,0.4858643 -0.155477,0.1384713 -0.498011,0.1384713 -0.08988,0 -0.162765,-0.00486 -0.07288,-0.00486 -0.133612,-0.00486 -0.121466,0 -0.199205,0.07045 -0.07774,0.07045 -0.07774,0.1943457 0,0.0898849 0.0413,0.14818858 0.04373,0.0583037 0.10446,0.0898849 0.06316,0.0340105 0.123896,0.0412985 0.08017,0.0145759 0.155476,0.0194346 0.07774,0.004859 0.153048,0.004859 z"
         style="font-family:'Bradley Hand';-inkscape-font-specification:'Bradley Hand Bold Italic'"
         id="path577" /></g><g
       aria-label="⤴︎"
       transform="scale(1.0561623,0.94682417)"
       id="text8369-1-8-9"
       style="font-style:italic;font-weight:bold;font-size:4.97525px;line-height:1.25;font-family:'Lobster 1.4';-inkscape-font-specification:'Lobster 1.4 Bold Italic';fill:#487b7f;stroke-width:0.373144"><path
         d="m 34.355219,19.198526 q 0.590325,0 0.898849,-0.272084 0.310953,-0.272084 0.310953,-0.867267 v -1.015457 l -0.01701,-0.439707 0.25022,0.289089 0.478576,0.478577 q 0.03887,0.03887 0.08746,0.06559 0.04859,0.02429 0.111749,0.02429 0.114178,0 0.189487,-0.07531 0.07774,-0.07774 0.07774,-0.201634 0,-0.10689 -0.08746,-0.196775 L 35.492141,15.82177 q -0.08503,-0.08746 -0.208921,-0.08746 -0.121466,0 -0.206492,0.08746 l -1.163645,1.166074 q -0.08746,0.08989 -0.08746,0.196775 0,0.123895 0.07531,0.201634 0.07774,0.07531 0.191916,0.07531 0.06316,0 0.111749,-0.02429 0.05102,-0.02672 0.08746,-0.06559 l 0.476147,-0.478577 0.252649,-0.289089 -0.01701,0.439707 v 0.971729 q 0.0024,0.347393 -0.155477,0.485864 -0.155476,0.138471 -0.498011,0.138471 -0.08988,0 -0.162764,-0.0049 -0.07288,-0.0049 -0.133613,-0.0049 -0.121466,0 -0.199204,0.07045 -0.07774,0.07045 -0.07774,0.194346 0,0.08989 0.0413,0.148189 0.04373,0.0583 0.104461,0.08988 0.06316,0.03401 0.123895,0.0413 0.08017,0.01458 0.155477,0.01943 0.07774,0.0049 0.153047,0.0049 z"
         style="font-family:'Bradley Hand';-inkscape-font-specification:'Bradley Hand Bold Italic'"
         id="path580" /></g><g
       aria-label="⤴︎"
       transform="scale(1.0561623,0.94682417)"
       id="text8369-1-8-9-1"
       style="font-style:italic;font-weight:bold;font-size:4.97525px;line-height:1.25;font-family:'Lobster 1.4';-inkscape-font-specification:'Lobster 1.4 Bold Italic';fill:#487b7f;stroke-width:0.373144"><path
         d="m 62.608946,19.015425 q 0.590325,0 0.898849,-0.272084 0.310953,-0.272084 0.310953,-0.867268 v -1.015456 l -0.017,-0.439707 0.25022,0.289089 0.478576,0.478576 q 0.03887,0.03887 0.08746,0.06559 0.04859,0.02429 0.111748,0.02429 0.114179,0 0.189488,-0.07531 0.07774,-0.07774 0.07774,-0.201634 0,-0.10689 -0.08746,-0.196775 l -1.163645,-1.166074 q -0.08503,-0.08745 -0.208921,-0.08745 -0.121466,0 -0.206493,0.08745 l -1.163644,1.166074 q -0.08746,0.08988 -0.08746,0.196775 0,0.123896 0.07531,0.201634 0.07774,0.07531 0.191916,0.07531 0.06316,0 0.111749,-0.02429 0.05102,-0.02672 0.08746,-0.06559 l 0.476147,-0.478576 0.252649,-0.289089 -0.017,0.439707 v 0.971728 q 0.0024,0.347393 -0.155477,0.485864 -0.155476,0.138472 -0.498011,0.138472 -0.08988,0 -0.162764,-0.0049 -0.07288,-0.0049 -0.133613,-0.0049 -0.121466,0 -0.199204,0.07045 -0.07774,0.07045 -0.07774,0.194345 0,0.08988 0.0413,0.148189 0.04373,0.0583 0.104461,0.08989 0.06316,0.03401 0.123895,0.0413 0.08017,0.01458 0.155477,0.01944 0.07774,0.0049 0.153047,0.0049 z"
         style="font-family:'Bradley Hand';-inkscape-font-specification:'Bradley Hand Bold Italic'"
         id="path583" /></g><g
       aria-label="⤴︎"
       transform="scale(-1.0561623,-0.94682417)"
       id="text8369-1-8-1"
       style="font-style:italic;font-weight:bold;font-size:4.97525px;line-height:1.25;font-family:'Lobster 1.4';-inkscape-font-specification:'Lobster 1.4 Bold Italic';fill:#487b7f;stroke-width:0.373144"><path
         d="m -39.282163,-0.77669946 q 0.590325,0 0.898848,-0.27208394 0.310954,-0.272084 0.310954,-0.8672677 v -1.0154562 l -0.01701,-0.4397072 0.25022,0.2890892 0.478577,0.4785763 q 0.03887,0.038869 0.08746,0.065592 0.04859,0.024293 0.111749,0.024293 0.114178,0 0.189487,-0.075309 0.07774,-0.077738 0.07774,-0.2016336 0,-0.1068901 -0.08746,-0.196775 l -1.163645,-1.1660742 q -0.08503,-0.087456 -0.208922,-0.087456 -0.121466,0 -0.206492,0.087456 l -1.163645,1.1660742 q -0.08745,0.089885 -0.08745,0.196775 0,0.1238954 0.07531,0.2016336 0.07774,0.075309 0.191916,0.075309 0.06316,0 0.111749,-0.024293 0.05101,-0.026722 0.08745,-0.065592 l 0.476147,-0.4785763 0.25265,-0.2890892 -0.01701,0.4397072 v 0.9717284 q 0.0024,0.347393 -0.155476,0.4858643 -0.155477,0.1384713 -0.498011,0.1384713 -0.08989,0 -0.162765,-0.00486 -0.07288,-0.00486 -0.133612,-0.00486 -0.121466,0 -0.199205,0.07045 -0.07774,0.07045 -0.07774,0.1943457 0,0.0898849 0.0413,0.14818858 0.04373,0.0583037 0.10446,0.0898849 0.06316,0.0340105 0.123896,0.0412985 0.08017,0.0145759 0.155476,0.0194346 0.07774,0.004859 0.153048,0.004859 z"
         style="font-family:'Bradley Hand';-inkscape-font-specification:'Bradley Hand Bold Italic'"
         id="path571" /></g><text
       xml:space="preserve"
       style="font-style:italic;font-weight:bold;font-size:3.52778px;line-height:1.25;font-family:'Lobster 1.4';-inkscape-font-specification:'Lobster 1.4 Bold Italic';fill:#487b7f;fill-opacity:1;stroke-width:0.264583"
       x="43.133453"
       y="2.4624143"
       id="text8369-0"><tspan
         sodipodi:role="line"
         style="font-style:italic;font-variant:normal;font-weight:bold;font-stretch:normal;font-size:3.52778px;font-family:'Bradley Hand';-inkscape-font-specification:'Bradley Hand Bold Italic';fill:#487b7f;fill-opacity:1;stroke-width:0.264583"
         x="43.133453"
         y="2.4624143"
         id="tspan11279-2">add argument(s)</tspan></text><text
       xml:space="preserve"
       style="font-style:italic;font-weight:bold;font-size:3.52778px;line-height:1.25;font-family:'Lobster 1.4';-inkscape-font-specification:'Lobster 1.4 Bold Italic';fill:#487b7f;fill-opacity:1;stroke-width:0.264583"
       x="5.0547757"
       y="18.510878"
       id="text8369-0-3"><tspan
         sodipodi:role="line"
         style="font-style:italic;font-variant:normal;font-weight:bold;font-stretch:normal;font-size:3.52778px;font-family:'Bradley Hand';-inkscape-font-specification:'Bradley Hand Bold Italic';fill:#487b7f;fill-opacity:1;stroke-width:0.264583"
         x="5.0547757"
         y="18.510878"
         id="tspan11279-2-9">separate by comma</tspan></text><text
       xml:space="preserve"
       style="font-style:italic;font-weight:bold;font-size:3.52778px;line-height:1.25;font-family:'Lobster 1.4';-inkscape-font-specification:'Lobster 1.4 Bold Italic';fill:#487b7f;fill-opacity:1;stroke-width:0.264583"
       x="45.406628"
       y="18.377525"
       id="text8369-0-3-6"><tspan
         sodipodi:role="line"
         style="font-style:italic;font-variant:normal;font-weight:bold;font-stretch:normal;font-size:3.52778px;font-family:'Bradley Hand';-inkscape-font-specification:'Bradley Hand Bold Italic';fill:#487b7f;fill-opacity:1;stroke-width:0.264583"
         x="45.406628"
         y="18.377525"
         id="tspan11443">go to results</tspan><tspan
         sodipodi:role="line"
         style="font-style:italic;font-variant:normal;font-weight:bold;font-stretch:normal;font-size:3.52778px;font-family:'Bradley Hand';-inkscape-font-specification:'Bradley Hand Bold Italic';fill:#487b7f;fill-opacity:1;stroke-width:0.264583"
         x="45.406628"
         y="22.985857"
         id="tspan18985">(or hit Enter)</tspan></text><path
       d="m 67.765987,9.7035541 c 0.117981,-0.132218 0.117981,-0.346939 0,-0.479156 l -1.208115,-1.353906 c -0.08683,-0.09731 -0.216139,-0.125872 -0.329401,-0.07298 -0.113261,0.05288 -0.18688,0.175585 -0.18688,0.313091 v 2.7078139 c 0,0.136448 0.07362,0.260203 0.18688,0.31309 0.113262,0.05289 0.242567,0.02327 0.329401,-0.07298 l 1.208115,-1.3539059 z"
       id="path23012"
       style="fill:#ffffff;stroke-width:0.00999168" /></g></svg>
