<?xml version="1.0" standalone="no"?>
<!DOCTYPE svg PUBLIC "-//W3C//DTD SVG 20010904//EN"
 "http://www.w3.org/TR/2001/REC-SVG-20010904/DTD/svg10.dtd">
<svg version="1.0" xmlns="http://www.w3.org/2000/svg"
 width="1000.000000pt" height="1000.000000pt" viewBox="0 0 1000.000000 1000.000000"
 preserveAspectRatio="xMidYMid meet">
<metadata>
Created by potrace 1.14, written by Peter Selinger 2001-2017
</metadata>
<g transform="translate(0.000000,1000.000000) scale(0.100000,-0.100000)"
fill="#000000" stroke="none">
<path d="M1760 9985 c-547 -68 -1033 -349 -1364 -789 -210 -280 -347 -633
-386 -998 -14 -135 -14 -6261 0 -6396 42 -393 198 -771 440 -1067 334 -408
828 -672 1354 -724 149 -15 6240 -15 6387 -1 365 36 723 174 1005 386 452 340
738 848 794 1413 14 143 14 6239 0 6382 -36 364 -175 724 -387 1006 -338 450
-842 735 -1403 793 -60 6 -1229 9 -3215 9 -2496 -1 -3141 -4 -3225 -14z m2538
-3275 l1962 -904 0 -568 c0 -530 -1 -569 -17 -578 -29 -18 -4076 -1880 -4085
-1880 -4 0 -7 311 -6 690 l3 691 1205 530 c662 291 1208 533 1212 537 4 4
-540 250 -1208 546 l-1214 539 0 693 0 693 93 -42 c50 -24 975 -450 2055 -947z
m3882 -4175 l0 -615 -1555 0 -1555 0 0 615 0 615 1555 0 1555 0 0 -615z"/>
</g>
</svg>
