<?xml version="1.0" standalone="no"?>
<!DOCTYPE svg PUBLIC "-//W3C//DTD SVG 20010904//EN"
 "http://www.w3.org/TR/2001/REC-SVG-20010904/DTD/svg10.dtd">
<svg version="1.0" xmlns="http://www.w3.org/2000/svg"
 width="700.000000pt" height="700.000000pt" viewBox="0 0 700.000000 700.000000"
 preserveAspectRatio="xMidYMid meet">
<metadata>
Created by potrace 1.14, written by Peter Selinger 2001-2017
</metadata>
<g transform="translate(0.000000,700.000000) scale(0.100000,-0.100000)"
fill="#000000" stroke="none">
<path d="M810 6985 c-227 -49 -400 -151 -568 -337 l-24 -26 89 -53 c81 -48
116 -68 213 -122 19 -10 107 -61 195 -112 88 -51 421 -243 740 -425 319 -183
613 -352 653 -376 40 -24 75 -44 77 -44 3 0 33 -17 67 -38 35 -21 88 -52 118
-69 63 -34 89 -50 215 -123 50 -29 115 -66 145 -83 30 -16 80 -44 110 -62 30
-18 71 -42 90 -53 19 -11 91 -52 160 -92 69 -40 150 -86 180 -103 30 -17 104
-59 163 -94 60 -35 110 -63 112 -63 2 0 40 -22 85 -50 45 -27 83 -50 85 -50 2
0 116 -64 252 -143 136 -79 278 -160 316 -181 l67 -38 0 -768 0 -767 -112 -64
c-62 -35 -122 -69 -133 -76 -11 -7 -27 -16 -35 -20 -16 -8 -140 -79 -200 -115
-19 -11 -222 -127 -450 -258 -228 -131 -435 -249 -460 -263 -25 -15 -101 -58
-170 -97 -69 -39 -141 -80 -160 -92 -19 -11 -208 -119 -420 -241 -212 -121
-488 -279 -615 -352 -126 -73 -250 -143 -275 -157 -25 -14 -184 -105 -355
-203 -171 -98 -323 -186 -340 -195 -16 -9 -91 -52 -165 -95 -74 -43 -151 -87
-170 -97 -59 -33 -58 -34 15 -106 129 -125 259 -200 445 -255 l75 -22 2650 -2
c2585 -2 2652 -2 2737 17 199 44 347 120 482 249 158 152 252 329 295 561 9
49 8 5285 -1 5340 -35 209 -136 402 -290 552 -122 119 -265 199 -446 251 l-77
22 -2650 2 c-2230 1 -2660 -1 -2715 -12z"/>
<path d="M0 3480 c0 -770 3 -1400 8 -1400 4 0 32 14 62 31 116 64 275 151 368
201 53 28 102 54 107 58 6 4 46 26 90 50 44 24 100 54 125 68 56 30 116 63
345 187 99 54 198 108 220 120 22 12 72 39 110 60 39 20 93 50 120 65 150 82
922 503 983 535 24 13 21 15 -253 165 -62 34 -128 71 -225 125 -41 23 -104 58
-140 77 -36 20 -162 89 -280 155 -254 142 -320 178 -379 210 -24 13 -62 34
-85 47 -58 32 -125 70 -336 186 -401 222 -737 409 -782 434 -26 14 -49 26 -52
26 -3 0 -6 -630 -6 -1400z"/>
</g>
</svg>
